<svg xmlns="http://www.w3.org/2000/svg" xmlns:xlink="http://www.w3.org/1999/xlink" viewBox="0 0 1197.78 1377.8"><defs><style>.cls-1{mask:url(#mask);filter:url(#luminosity-noclip-2);}.cls-2{mix-blend-mode:multiply;fill:url(#linear-gradient);}.cls-17,.cls-3{fill:#e0e0e0;}.cls-15,.cls-3{opacity:0.72;}.cls-4{fill:#5c5049;}.cls-5{fill:#c9c5b4;}.cls-6{fill:#292c47;}.cls-7{fill:#d4c3bd;}.cls-8{fill:#de9673;}.cls-9{fill:#d44040;}.cls-10{fill:#eea886;}.cls-11{fill:#e6d3cc;}.cls-12{fill:#ded1c5;}.cls-13{fill:#bc8551;}.cls-14{fill:#a77860;}.cls-15,.cls-22{fill:#fff;}.cls-16{fill:#807066;}.cls-18{fill:#7abffa;}.cls-19{fill:#68b4f2;}.cls-20{fill:#a3d5ff;}.cls-21{fill:#ffc655;}.cls-23{fill:#cfc147;}.cls-24{fill:#a09832;}.cls-25{fill:#727643;}.cls-26{fill:#4b4c37;}.cls-27{fill:#444532;}.cls-28{fill:#7d776b;}.cls-29{fill:#736d38;}.cls-30{fill:#477830;}.cls-31{fill:#92b856;}.cls-32{fill:#367031;}.cls-33{fill:#5b802a;}.cls-34{fill:#4b5e26;}.cls-35{fill:#3a472d;}.cls-36{fill:#6a8f39;}.cls-37{fill:#46402b;}.cls-38{fill:#706c3a;}.cls-39{fill:#858045;}.cls-40{fill:url(#linear-gradient-2);}.cls-41{mask:url(#mask-2);}.cls-42{fill:url(#linear-gradient-3);}.cls-43{fill:url(#linear-gradient-4);}.cls-44{fill:url(#linear-gradient-5);}.cls-45{fill:url(#linear-gradient-6);}.cls-46{filter:url(#luminosity-noclip);}</style><filter id="luminosity-noclip" x="654.79" y="-9005.4" width="63.26" height="32766" filterUnits="userSpaceOnUse" color-interpolation-filters="sRGB"><feFlood flood-color="#fff" result="bg"/><feBlend in="SourceGraphic" in2="bg"/></filter><mask id="mask" x="654.79" y="-9005.4" width="63.26" height="32766" maskUnits="userSpaceOnUse"><g class="cls-46"/></mask><linearGradient id="linear-gradient" x1="657.8" y1="716.03" x2="694.43" y2="648.94" gradientUnits="userSpaceOnUse"><stop offset="0" stop-color="#fff"/><stop offset="1"/></linearGradient><linearGradient id="linear-gradient-2" x1="654.79" y1="663.61" x2="753.38" y2="663.61" gradientUnits="userSpaceOnUse"><stop offset="0" stop-color="#ff9f55"/><stop offset="1" stop-color="#ffd255"/></linearGradient><filter id="luminosity-noclip-2" x="654.79" y="620.35" width="63.26" height="86.51" filterUnits="userSpaceOnUse" color-interpolation-filters="sRGB"><feFlood flood-color="#fff" result="bg"/><feBlend in="SourceGraphic" in2="bg"/></filter><mask id="mask-2" x="654.79" y="620.35" width="63.26" height="86.51" maskUnits="userSpaceOnUse"><g class="cls-1"><path class="cls-2" d="M718.05,706.86h-51.2l-12.06-86.51h27.73s-10,78.08,35.53,86.51Z"/></g></mask><linearGradient id="linear-gradient-3" x1="657.8" y1="716.03" x2="694.43" y2="648.94" gradientUnits="userSpaceOnUse"><stop offset="0" stop-color="#ffa155"/><stop offset="1" stop-color="#ffa155"/></linearGradient><linearGradient id="linear-gradient-4" x1="670.24" y1="620.92" x2="693.93" y2="577.52" gradientUnits="userSpaceOnUse"><stop offset="0.01" stop-color="#e6e6e6"/><stop offset="1" stop-color="#ffdcc2"/></linearGradient><linearGradient id="linear-gradient-5" x1="698.06" y1="620.77" x2="715.44" y2="588.94" xlink:href="#linear-gradient-4"/><linearGradient id="linear-gradient-6" x1="655.84" y1="620.77" x2="673.21" y2="588.94" xlink:href="#linear-gradient-4"/></defs><g id="Layer_2" data-name="Layer 2"><g id="Слой_1" data-name="Слой 1"><path class="cls-3" d="M714.51,226.71h112.8a26.11,26.11,0,0,1,26.11,26.11v112.8a26.11,26.11,0,0,1-26.11,26.11H714.51a26.1,26.1,0,0,1-26.1-26.1V252.82A26.1,26.1,0,0,1,714.51,226.71Z"/><polygon class="cls-4" points="631.62 1289.8 576.65 924.23 587.24 922.6 642.21 1288.16 631.62 1289.8"/><polygon class="cls-4" points="564.5 1289.8 509.54 924.23 520.12 922.6 575.09 1288.16 564.5 1289.8"/><polygon class="cls-4" points="233.89 1289.8 223.31 1288.16 278.27 922.6 288.86 924.23 233.89 1289.8"/><path class="cls-5" d="M593.86,928l43-453s-75.3-9.85-120.81-7.42L447.71,928Z"/><rect class="cls-5" x="447.71" y="904.94" width="146.15" height="23.02"/><path class="cls-5" d="M352.1,909.5,329.25,477.81s190.6-20.7,307.66-2.86Z"/><path class="cls-6" d="M504.29,338S533.72,251.71,477.56,225s-103.84,11.92-112.85,32.85-6.62,59,1.06,85.52,6.56,66.93-10.13,80.45-37.38,35.94-36.35,81.62c.63,28.34,111.5-72.49,111.5-72.49Z"/><path class="cls-7" d="M429.36,1266.73s-1.75,61,7,64.66,41.67-17.54,56.21-38.51-18.22-69.79-23.59-96.72c-2.25-11.28-27.87-31.56-40.36-25.75s-21.61,20.7-21.61,20.7S438.75,1212.89,429.36,1266.73Z"/><path class="cls-8" d="M407,1191.11s10.82,20.81,16.38,37,6.6,60.87,10.11,64,31.12-10.83,34.81-27.55-7.52-50.15-18.18-67.72-21.51-26.37-21.51-26.37S409.75,1174.07,407,1191.11Z"/><polygon class="cls-7" points="468.94 1196.16 498.62 1239.48 493 1243.33 470.06 1209.85 468.94 1196.16"/><path class="cls-8" d="M362.09,717.18s14.51,24.51,0,42.35S250,826.39,250.7,854.71s18.59,72.63,25,83.87,30.12,57.9,42.43,85.2,83.52,157.93,97.44,187.37,5.35-117.77,5.35-117.77l-71.2-208.79L516.1,722.53S496,677.71,362.09,717.18Z"/><path class="cls-9" d="M425.38,440.69s-46.16,10.23-64.48,20.94-59,60-59,81.14,177.94,41,177.94,41l33.72,123.13s89.94-22,100.65-40.15S578.78,519,572.36,491.65s-40.07-45.71-77.54-51A257.35,257.35,0,0,0,425.38,440.69Z"/><path class="cls-10" d="M534.48,721.22s-3.21,21.06,5.35,30,48,61,27.13,112.07c-19.19,46.94-56.39,46.05-56.39,46.05H453s16.72,84.48,11.32,140.16S433.51,1232.29,433,1238.72s-24.34,26.5-31.3,16.33c0,0-.65-76.55-4.39-105.46S377.58,1005,372.76,987.91s-33.19-69.06-33.19-74.41-27.71-89.16,32.78-110.58S454.22,721.67,534.48,721.22Z"/><path class="cls-11" d="M373,1314.1s-39.71,46.32-35.25,54.65,43.43,12.57,67.93,5.4,29.72-65.72,42.48-90c5.34-10.18-1.82-42.06-15.19-45.39s-29.82,2.51-29.82,2.51S414.17,1278.14,373,1314.1Z"/><path class="cls-10" d="M403.15,1241.23s-4.68,23-10.51,39-33.15,51.48-32.38,56.1,31,11.15,44.4.47,25.69-43.72,28.45-64.09-.14-34-.14-34S416,1229.72,403.15,1241.23Z"/><polygon class="cls-11" points="448.16 1284.11 443.99 1336.46 437.2 1335.92 440.42 1295.46 448.16 1284.11"/><path class="cls-6" d="M567,863.27c-18.12,47.56-56.39,46.05-56.39,46.05H453s-24-38.07-82.83-44.61a173.94,173.94,0,0,0-44.36,1.06l-.6.09c-78.15,11.57-63.06,40.26-62.82,41-6.49-15.86-13.32-41.08-11.67-54.66,7.5-61.86,96.87-74.83,111.39-92.68s0-42.35,0-42.35c133.87-39.47,154,5.35,154,5.35,5.86-.82,20.91-9.48,27.3-9.52,0,0,6.7,14.64,11.42,27.84C559,752.5,586.61,811.67,567,863.27Z"/><polygon class="cls-12" points="511.41 522.7 531.22 706.86 270.51 706.86 250.7 522.7 511.41 522.7"/><rect class="cls-12" x="508.42" y="690.29" width="43.54" height="16.57"/><rect class="cls-13" y="706.86" width="813.48" height="25.07"/><path class="cls-10" d="M454.23,239.68S512.64,257,504.29,338s-46.49,76.89-50.06,77.48-48.88,3.58-63.18-94.76S454.23,239.68,454.23,239.68Z"/><path class="cls-10" d="M482.07,400.6s-3.1,26.83,2.07,43.52-68,17.16-68,3.43c0-15.59,7.48-28.61.47-55.33S482.07,400.6,482.07,400.6Z"/><path class="cls-6" d="M439.15,275.82s31.74,50.49,65.14,62.2c0,0,18.24-84.72-57.09-102.47s-63.54,85.57-57.91,113.12C389.29,348.67,405,308.14,439.15,275.82Z"/><path class="cls-14" d="M425.29,404S448.4,428.1,478,406.53c0,0-2.44,15.39-23.7,17.38S425.29,404,425.29,404Z"/><path class="cls-15" d="M396.58,268.22s16.71-32.36,44.92-33.8,45,23,45,23-11-27.56-45-27.56S396.58,268.22,396.58,268.22Z"/><path class="cls-10" d="M491.61,440.26s-1,56.11-45.53,57.77-35.23-53.81-35.23-53.81S443.4,431,491.61,440.26Z"/><rect class="cls-16" x="795.04" y="731.93" width="18.44" height="575.81"/><rect class="cls-16" x="27.56" y="731.93" width="18.44" height="575.81"/><rect class="cls-17" x="901.47" y="257.08" width="157.95" height="14.51"/><rect class="cls-17" x="901.47" y="322.53" width="273.07" height="14.51"/><rect class="cls-17" x="901.47" y="289.81" width="214.7" height="14.51"/><rect class="cls-17" x="901.47" y="355.25" width="119.04" height="14.51"/><rect class="cls-18" x="713.61" y="269.99" width="114.59" height="78.46"/><polygon class="cls-19" points="713.62 348.46 770.91 304.58 828.22 348.43 713.62 348.46"/><polygon class="cls-20" points="828.2 269.98 770.91 318.86 713.61 270 828.2 269.98"/><rect class="cls-3" x="531.22" width="165.01" height="165.01" rx="26.1"/><rect class="cls-17" x="744.29" y="30.37" width="297.53" height="14.51"/><rect class="cls-17" x="744.29" y="95.82" width="386.15" height="14.51"/><rect class="cls-17" x="744.29" y="63.09" width="152.52" height="14.51"/><rect class="cls-17" x="744.29" y="128.54" width="220.19" height="14.51"/><rect class="cls-18" x="556.43" y="43.28" width="114.59" height="78.46"/><polygon class="cls-19" points="556.44 121.75 613.73 77.87 671.03 121.72 556.44 121.75"/><polygon class="cls-20" points="671.01 43.26 613.73 92.15 556.42 43.29 671.01 43.26"/><rect class="cls-17" x="901.47" y="480.54" width="212.54" height="14.51"/><polygon class="cls-21" points="35.3 57.2 309.69 58.46 308.77 257.35 308.58 299.24 266.88 257.15 34.38 256.08 35.3 57.2"/><path class="cls-22" d="M151.05,165.16a21,21,0,1,0,21-20.89A21,21,0,0,0,151.05,165.16Z"/><path class="cls-22" d="M82.23,164.94a21,21,0,1,0,21-20.89A21,21,0,0,0,82.23,164.94Z"/><path class="cls-22" d="M218.3,165.37a21,21,0,1,0,21-20.89A21,21,0,0,0,218.3,165.37Z"/><path class="cls-23" d="M166.73,641.78h0s15.58,7.46,11.51,4.07,10.16-22.36,29.81-47.42,6.77-35.9-5.42-65c-4.85-11.58-13.34-15.88-21.45-15.67-12.29.33-23.72,11-20.31,22.44,5.65,19,13.31,37.26-.92,56.23C145.86,615.2,166.37,641.32,166.73,641.78Z"/><path class="cls-23" d="M209.05,539.83c9.51-4.74,21-21.67,11.54-25.74s-2.09-16.25-11.54-16.25-14.2,14.71-8.78,22.93C200.27,520.77,199.53,544.58,209.05,539.83Z"/><path class="cls-23" d="M211.44,498.21s14.91-12.87,0-15.58-10.83,13.55-9.48,15.58S211.44,498.21,211.44,498.21Z"/><path class="cls-24" d="M152.51,543.22c11.52-2,11.52-13.55,11.52-13.55s-9.15-16.93-16.94-9.14S141,545.25,152.51,543.22Z"/><path class="cls-24" d="M166.73,641.78h0s22.69-41.32,10.83-70.45c-8.3-20.41-1.31-42.31,3.62-53.6-12.29.33-23.72,11-20.31,22.44,5.65,19,13.31,37.26-.92,56.23C145.86,615.2,166.37,641.32,166.73,641.78Z"/><polygon class="cls-25" points="206.35 641.28 139.13 641.28 142 651.12 203.89 651.12 206.35 641.28"/><polygon class="cls-26" points="192 706.86 197.58 662.24 198.97 651.12 147.32 651.12 153.88 706.86 192 706.86"/><polygon class="cls-25" points="209.24 567.95 224.13 557.79 209.24 565.91 209.24 567.95"/><polygon class="cls-25" points="192.31 501.22 200.42 508.5 201.11 506.81 192.31 501.22"/><polygon class="cls-25" points="212.29 507.15 222.11 505.8 213.14 505.8 212.29 507.15"/><polygon class="cls-25" points="202.47 474.47 205.35 484.29 206.53 484.29 202.47 474.47"/><polygon class="cls-25" points="213.98 484.29 214.83 485.64 221.27 480.22 213.98 484.29"/><polygon class="cls-25" points="209.24 482.93 211.06 483.61 209.24 477.18 209.24 482.93"/><polygon class="cls-25" points="204.84 589.12 211.06 604.7 208.06 589.12 204.84 589.12"/><polygon class="cls-25" points="148.44 529.56 135.57 520.75 147.32 530.93 148.44 529.56"/><polygon class="cls-25" points="158.38 604.7 139.87 607.69 158.38 607.69 158.38 604.7"/><path class="cls-27" d="M197.58,662.24,199,651.12H147.32l6.56,55.74h12.58C165.42,676.22,187.51,665.52,197.58,662.24Z"/><polygon class="cls-28" points="175.96 620.4 175.53 624.9 174.15 639.59 173.8 643.29 173.22 649.42 172.87 653.13 169.88 684.71 167.94 705.16 167.78 706.86 71.18 706.86 70.86 702 67.16 643.58 65.97 624.9 65.81 622.4 65.76 621.52 65.22 613.03 116.5 616.45 119.3 616.64 127.69 617.19 155.4 619.04 156.26 619.09 175.14 620.35 175.96 620.4"/><path class="cls-29" d="M163.48,594.75l16.37-76s-29.63,57.69-29.63,81.87S163.48,594.75,163.48,594.75Z"/><path class="cls-30" d="M155.68,590.5s16.38-106.82,4.68-138.79c0,0-23.39,106.47-21.05,143S155.68,590.5,155.68,590.5Z"/><path class="cls-31" d="M92.52,600.64c-3.11-18.72-27.3-69.8-27.3-69.8-1.58,26.11,11.71,69.8,11.71,69.8S95.64,619.35,92.52,600.64Z"/><path class="cls-32" d="M101.1,599.08c-2.34-21.84-27.29-103.71-27.29-103.71-3.12,21.06,11.7,103.71,11.7,103.71S103.44,620.91,101.1,599.08Z"/><path class="cls-33" d="M108.9,599.86c-1.56-9.36-21.55-155.17-21.55-155.17-8.3,21.83,5.53,150.06,5.53,150.06C93.7,602.69,110.46,609.21,108.9,599.86Z"/><path class="cls-34" d="M116.7,594.75c0-12.13-15.39-185.15-15.39-185.15-2.13,10.92-8.43,115-8.43,115l8.22,74.5S116.7,606.87,116.7,594.75Z"/><path class="cls-35" d="M144.85,441.57s-25.83,138.27-24.26,160,26.68,30.37,24.26-67.53C144.85,534,146.49,459.51,144.85,441.57Z"/><path class="cls-36" d="M139.14,518.77s-2.21-43.67-6.09-58.48c0,0-18.69,133.19-16.35,144.18S135.76,583.32,139.14,518.77Z"/><path class="cls-37" d="M127.82,552.08c4.1-47.6-15-120.64-15-120.64-5.46,10.91-8,74.13-8,74.13s7.23,103.64,11.7,110.88S123.71,599.67,127.82,552.08Z"/><path class="cls-38" d="M176,620.4l-.42,4.5-1.39,14.69-.35,3.7-.58,6.13-.35,3.71c-5.57,1.16-14,4.18-23.7,11.93-9.93,7.94-21.17,20.84-31.92,41.8H71.18L70.86,702l-3.7-58.42L66,624.9l-.16-2.5,0-.88,61.94-1.72,27.7-.76.86.05,18.88,1.26Z"/><polygon class="cls-39" points="64.06 594.75 56.9 624.9 184.27 624.9 176.23 594.75 64.06 594.75"/><rect class="cls-17" x="901.47" y="545.99" width="296.31" height="14.51"/><rect class="cls-17" x="901.47" y="513.27" width="177.41" height="14.51"/><rect class="cls-17" x="901.47" y="578.71" width="121.2" height="14.51"/><path class="cls-40" d="M747,636c-5.64-3.75-13.43-2.86-18.83-1.51l2-14.16H654.79l12.06,86.51h51.2l1.13-8.08,1.08-7.77a30.42,30.42,0,0,0,20.31-8c8.14-7.45,12.81-19.47,12.81-33C753.38,642,749.89,638,747,636ZM735,676.94a21.87,21.87,0,0,1-13.61,5.8l5.47-39.3c4-1.37,11.65-3.16,15.53-.58.68.45,2.75,1.83,2.75,7.18C745.16,661.23,741.46,671,735,676.94Z"/><g class="cls-41"><path class="cls-42" d="M718.05,706.86h-51.2l-12.06-86.51h27.73s-10,78.08,35.53,86.51Z"/></g><path class="cls-43" d="M689.44,560.79s-15.83,5.28-10,19.35,16,22.94,6.45,40.21c0,0,17.6-10.59,9.39-28.18S682.11,569.59,689.44,560.79Z"/><path class="cls-44" d="M712.15,576.66s-11.62,3.87-7.32,14.2,11.71,16.82,4.74,29.49c0,0,12.9-7.77,6.88-20.67S706.77,583.11,712.15,576.66Z"/><path class="cls-45" d="M669.92,576.66s-11.62,3.87-7.31,14.2,11.7,16.82,4.73,29.49c0,0,12.91-7.77,6.88-20.67S664.54,583.11,669.92,576.66Z"/><path class="cls-3" d="M714.51,450.17h112.8a26.11,26.11,0,0,1,26.11,26.11v112.8a26.1,26.1,0,0,1-26.1,26.1H714.51a26.1,26.1,0,0,1-26.1-26.1V476.28A26.1,26.1,0,0,1,714.51,450.17Z"/><rect class="cls-18" x="713.61" y="493.45" width="114.59" height="78.46"/><polygon class="cls-19" points="713.62 571.92 770.91 528.04 828.22 571.89 713.62 571.92"/><polygon class="cls-20" points="828.2 493.44 770.91 542.32 713.61 493.46 828.2 493.44"/></g></g></svg>