<svg xmlns="http://www.w3.org/2000/svg" xmlns:xlink="http://www.w3.org/1999/xlink" viewBox="0 0 588 620"><defs><style>.cls-1{fill:none;}.cls-2{clip-path:url(#clip-path);}.cls-3{fill:#fb7185;}</style><clipPath id="clip-path"><ellipse class="cls-1" cx="294.24" cy="310" rx="294.24" ry="310"/></clipPath></defs><g id="Layer_2" data-name="Layer 2"><g id="Layer_1-2" data-name="Layer 1"><g class="cls-2"><circle class="cls-3" cx="164" cy="172.8" r="8"/><circle class="cls-3" cx="112" cy="172.8" r="8"/><circle class="cls-3" cx="60" cy="172.8" r="8"/><circle class="cls-3" cx="8" cy="172.8" r="8"/><circle class="cls-3" cx="164" cy="118" r="8"/><circle class="cls-3" cx="112" cy="118" r="8"/><circle class="cls-3" cx="60" cy="118" r="8"/><circle class="cls-3" cx="8" cy="118" r="8"/><circle class="cls-3" cx="60" cy="63" r="8"/><circle class="cls-3" cx="8" cy="63" r="8"/><circle class="cls-3" cx="164" cy="63" r="8"/><circle class="cls-3" cx="112" cy="63" r="8"/><circle class="cls-3" cx="60" cy="8" r="8"/><circle class="cls-3" cx="8" cy="8" r="8"/><circle class="cls-3" cx="112" cy="8" r="8"/><circle class="cls-3" cx="164" cy="8" r="8"/><circle class="cls-3" cx="372" cy="172.8" r="8"/><circle class="cls-3" cx="320" cy="172.8" r="8"/><circle class="cls-3" cx="268" cy="172.8" r="8"/><circle class="cls-3" cx="216" cy="172.8" r="8"/><circle class="cls-3" cx="372" cy="118" r="8"/><circle class="cls-3" cx="320" cy="118" r="8"/><circle class="cls-3" cx="268" cy="118" r="8"/><circle class="cls-3" cx="216" cy="118" r="8"/><circle class="cls-3" cx="268" cy="63" r="8"/><circle class="cls-3" cx="216" cy="63" r="8"/><circle class="cls-3" cx="372" cy="63" r="8"/><circle class="cls-3" cx="320" cy="63" r="8"/><circle class="cls-3" cx="268" cy="8" r="8"/><circle class="cls-3" cx="216" cy="8" r="8"/><circle class="cls-3" cx="320" cy="8" r="8"/><circle class="cls-3" cx="372" cy="8" r="8"/><circle class="cls-3" cx="580" cy="172.8" r="8"/><circle class="cls-3" cx="528" cy="172.8" r="8"/><circle class="cls-3" cx="476" cy="172.8" r="8"/><circle class="cls-3" cx="424" cy="172.8" r="8"/><circle class="cls-3" cx="580" cy="118" r="8"/><circle class="cls-3" cx="528" cy="118" r="8"/><circle class="cls-3" cx="476" cy="118" r="8"/><circle class="cls-3" cx="424" cy="118" r="8"/><circle class="cls-3" cx="476" cy="63" r="8"/><circle class="cls-3" cx="424" cy="63" r="8"/><circle class="cls-3" cx="580" cy="63" r="8"/><circle class="cls-3" cx="528" cy="63" r="8"/><circle class="cls-3" cx="476" cy="8" r="8"/><circle class="cls-3" cx="424" cy="8" r="8"/><circle class="cls-3" cx="528" cy="8" r="8"/><circle class="cls-3" cx="580" cy="8" r="8"/><circle class="cls-3" cx="164" cy="392.4" r="8"/><circle class="cls-3" cx="112" cy="392.4" r="8"/><circle class="cls-3" cx="60" cy="392.4" r="8"/><circle class="cls-3" cx="8" cy="392.4" r="8"/><circle class="cls-3" cx="164" cy="337.6" r="8"/><circle class="cls-3" cx="112" cy="337.6" r="8"/><circle class="cls-3" cx="60" cy="337.6" r="8"/><circle class="cls-3" cx="8" cy="337.6" r="8"/><circle class="cls-3" cx="60" cy="282.6" r="8"/><circle class="cls-3" cx="8" cy="282.6" r="8"/><circle class="cls-3" cx="164" cy="282.6" r="8"/><circle class="cls-3" cx="112" cy="282.6" r="8"/><circle class="cls-3" cx="60" cy="227.6" r="8"/><circle class="cls-3" cx="8" cy="227.6" r="8"/><circle class="cls-3" cx="112" cy="227.6" r="8"/><circle class="cls-3" cx="164" cy="227.6" r="8"/><circle class="cls-3" cx="372" cy="392.4" r="8"/><circle class="cls-3" cx="320" cy="392.4" r="8"/><circle class="cls-3" cx="268" cy="392.4" r="8"/><circle class="cls-3" cx="216" cy="392.4" r="8"/><circle class="cls-3" cx="372" cy="337.6" r="8"/><circle class="cls-3" cx="320" cy="337.6" r="8"/><circle class="cls-3" cx="268" cy="337.6" r="8"/><circle class="cls-3" cx="216" cy="337.6" r="8"/><circle class="cls-3" cx="268" cy="282.6" r="8"/><circle class="cls-3" cx="216" cy="282.6" r="8"/><circle class="cls-3" cx="372" cy="282.6" r="8"/><circle class="cls-3" cx="320" cy="282.6" r="8"/><circle class="cls-3" cx="268" cy="227.6" r="8"/><circle class="cls-3" cx="216" cy="227.6" r="8"/><circle class="cls-3" cx="320" cy="227.6" r="8"/><circle class="cls-3" cx="372" cy="227.6" r="8"/><circle class="cls-3" cx="580" cy="392.4" r="8"/><circle class="cls-3" cx="528" cy="392.4" r="8"/><circle class="cls-3" cx="476" cy="392.4" r="8"/><circle class="cls-3" cx="424" cy="392.4" r="8"/><circle class="cls-3" cx="580" cy="337.6" r="8"/><circle class="cls-3" cx="528" cy="337.6" r="8"/><circle class="cls-3" cx="476" cy="337.6" r="8"/><circle class="cls-3" cx="424" cy="337.6" r="8"/><circle class="cls-3" cx="476" cy="282.6" r="8"/><circle class="cls-3" cx="424" cy="282.6" r="8"/><circle class="cls-3" cx="580" cy="282.6" r="8"/><circle class="cls-3" cx="528" cy="282.6" r="8"/><circle class="cls-3" cx="476" cy="227.6" r="8"/><circle class="cls-3" cx="424" cy="227.6" r="8"/><circle class="cls-3" cx="528" cy="227.6" r="8"/><circle class="cls-3" cx="580" cy="227.6" r="8"/><circle class="cls-3" cx="164" cy="612" r="8"/><circle class="cls-3" cx="112" cy="612" r="8"/><circle class="cls-3" cx="60" cy="612" r="8"/><circle class="cls-3" cx="8" cy="612" r="8"/><circle class="cls-3" cx="164" cy="557.2" r="8"/><circle class="cls-3" cx="112" cy="557.2" r="8"/><circle class="cls-3" cx="60" cy="557.2" r="8"/><circle class="cls-3" cx="8" cy="557.2" r="8"/><circle class="cls-3" cx="60" cy="502.2" r="8"/><circle class="cls-3" cx="8" cy="502.2" r="8"/><circle class="cls-3" cx="164" cy="502.2" r="8"/><circle class="cls-3" cx="112" cy="502.2" r="8"/><circle class="cls-3" cx="60" cy="447.2" r="8"/><circle class="cls-3" cx="8" cy="447.2" r="8"/><circle class="cls-3" cx="112" cy="447.2" r="8"/><circle class="cls-3" cx="164" cy="447.2" r="8"/><circle class="cls-3" cx="372" cy="612" r="8"/><circle class="cls-3" cx="320" cy="612" r="8"/><circle class="cls-3" cx="268" cy="612" r="8"/><circle class="cls-3" cx="216" cy="612" r="8"/><circle class="cls-3" cx="372" cy="557.2" r="8"/><circle class="cls-3" cx="320" cy="557.2" r="8"/><circle class="cls-3" cx="268" cy="557.2" r="8"/><circle class="cls-3" cx="216" cy="557.2" r="8"/><circle class="cls-3" cx="268" cy="502.2" r="8"/><circle class="cls-3" cx="216" cy="502.2" r="8"/><circle class="cls-3" cx="372" cy="502.2" r="8"/><circle class="cls-3" cx="320" cy="502.2" r="8"/><circle class="cls-3" cx="268" cy="447.2" r="8"/><circle class="cls-3" cx="216" cy="447.2" r="8"/><circle class="cls-3" cx="320" cy="447.2" r="8"/><circle class="cls-3" cx="372" cy="447.2" r="8"/><circle class="cls-3" cx="580" cy="612" r="8"/><circle class="cls-3" cx="528" cy="612" r="8"/><circle class="cls-3" cx="476" cy="612" r="8"/><circle class="cls-3" cx="424" cy="612" r="8"/><circle class="cls-3" cx="580" cy="557.2" r="8"/><circle class="cls-3" cx="528" cy="557.2" r="8"/><circle class="cls-3" cx="476" cy="557.2" r="8"/><circle class="cls-3" cx="424" cy="557.2" r="8"/><circle class="cls-3" cx="476" cy="502.2" r="8"/><circle class="cls-3" cx="424" cy="502.2" r="8"/><circle class="cls-3" cx="580" cy="502.2" r="8"/><circle class="cls-3" cx="528" cy="502.2" r="8"/><circle class="cls-3" cx="476" cy="447.2" r="8"/><circle class="cls-3" cx="424" cy="447.2" r="8"/><circle class="cls-3" cx="528" cy="447.2" r="8"/><circle class="cls-3" cx="580" cy="447.2" r="8"/></g></g></g></svg>